<svg xmlns="http://www.w3.org/2000/svg" viewBox="0 0 64 64">
  <defs>
    <linearGradient id="fg" x1="0%" y1="0%" x2="100%" y2="100%">
      <stop offset="0%" style="stop-color:#6C63FF"/>
      <stop offset="100%" style="stop-color:#4ECDC4"/>
    </linearGradient>
  </defs>
  <polygon points="32,2 60,17 60,47 32,62 4,47 4,17" fill="url(#fg)"/>
  <polygon points="32,8 54,20 54,44 32,56 10,44 10,20" fill="#1a1a2e" opacity="0.85"/>
  <circle cx="32" cy="32" r="10" fill="white" opacity="0.9"/>
  <circle cx="32" cy="32" r="6" fill="url(#fg)"/>
  <circle cx="32" cy="32" r="2.5" fill="white"/>
  <line x1="32" y1="22" x2="32" y2="14" stroke="#4ECDC4" stroke-width="2" stroke-linecap="round"/>
  <line x1="40" y1="27" x2="47" y2="21" stroke="#4ECDC4" stroke-width="2" stroke-linecap="round"/>
  <line x1="40" y1="37" x2="47" y2="43" stroke="#4ECDC4" stroke-width="2" stroke-linecap="round"/>
  <line x1="32" y1="42" x2="32" y2="50" stroke="#4ECDC4" stroke-width="2" stroke-linecap="round"/>
  <line x1="24" y1="37" x2="17" y2="43" stroke="#4ECDC4" stroke-width="2" stroke-linecap="round"/>
  <line x1="24" y1="27" x2="17" y2="21" stroke="#4ECDC4" stroke-width="2" stroke-linecap="round"/>
</svg>
